HIERARCHY
ROOT Hips
{
  OFFSET 46.5602 84.3701 33.6707
  CHANNELS 6 Xposition Yposition Zposition Zrotation Xrotation Yrotation
  JOINT spine
  {
    OFFSET 0 6.24479 0.359107
    CHANNELS 3 Zrotation Xrotation Yrotation
    JOINT spine1
    {
      OFFSET 0 9.06941 0
      CHANNELS 3 Zrotation Xrotation Yrotation
      JOINT spine2
      {
        OFFSET 0 8.69014 0
        CHANNELS 3 Zrotation Xrotation Yrotation
        JOINT Neck
        {
          OFFSET 0 22.3112 1.06372
          CHANNELS 3 Zrotation Xrotation Yrotation
          JOINT Head
          {
            OFFSET 0 6.74081 0
            CHANNELS 3 Zrotation Xrotation Yrotation
            End Site
            {
              OFFSET 0 16.3165 -5.38097
            }
          }
        }
        JOINT RightShoulder
        {
          OFFSET -3.65916 9.38468 -0.509514
          CHANNELS 3 Zrotation Xrotation Yrotation
          JOINT RightArm
          {
            OFFSET 0 12.3089 0
            CHANNELS 3 Zrotation Xrotation Yrotation
            JOINT RightArmRoll
            {
              OFFSET 0 6.21375 0
              CHANNELS 3 Zrotation Xrotation Yrotation
              JOINT RightForeArm
              {
                OFFSET 0 18.0985 0
                CHANNELS 3 Zrotation Xrotation Yrotation
                JOINT RightForeArmRoll
                {
                  OFFSET 0 6.97279 0
                  CHANNELS 3 Zrotation Xrotation Yrotation
                  JOINT RightHand
                  {
                    OFFSET 0 13.9929 0
                    CHANNELS 3 Zrotation Xrotation Yrotation
                    End Site
                    {
                      OFFSET 0 0 0
                    }
                  }
                }
              }
            }
          }
        }
        JOINT LeftShoulder
        {
          OFFSET 3.65916 9.38468 -0.509514
          CHANNELS 3 Zrotation Xrotation Yrotation
          JOINT LeftArm
          {
            OFFSET 0 12.3089 0
            CHANNELS 3 Zrotation Xrotation Yrotation
            JOINT LeftArmRoll
            {
              OFFSET 0 6.21375 0
              CHANNELS 3 Zrotation Xrotation Yrotation
              JOINT LeftForeArm
              {
                OFFSET 0 18.0985 0
                CHANNELS 3 Zrotation Xrotation Yrotation
                JOINT LeftForeArmRoll
                {
                  OFFSET 0 6.97279 0
                  CHANNELS 3 Zrotation Xrotation Yrotation
                  JOINT LeftHand
                  {
                    OFFSET 0 13.9929 0
                    CHANNELS 3 Zrotation Xrotation Yrotation
                    End Site
                    {
                      OFFSET 0 0 0
                    }
                  }
                }
              }
            }
          }
        }
      }
    }
  }
  JOINT RightUpLeg
  {
    OFFSET -5.53515 -1.015 -0.851454
    CHANNELS 3 Zrotation Xrotation Yrotation
    JOINT RightUpLegRoll
    {
      OFFSET 0 16.4075 0
      CHANNELS 3 Zrotation Xrotation Yrotation
      JOINT RightLeg
      {
        OFFSET 0 -20.3181 0
        CHANNELS 3 Zrotation Xrotation Yrotation
        JOINT RightLegRoll
        {
          OFFSET 0 20.3846 0
          CHANNELS 3 Zrotation Xrotation Yrotation
          JOINT RightFoot
          {
            OFFSET 0 16.9668 0
            CHANNELS 3 Zrotation Xrotation Yrotation
            JOINT RightToeBase
            {
              OFFSET 0 14.1834 0
              CHANNELS 3 Zrotation Xrotation Yrotation
              End Site
              {
                OFFSET 0.0060118 6.8689 -0.791746
              }
            }
          }
        }
      }
    }
  }
  JOINT LeftUpLeg
  {
    OFFSET 5.53515 -1.015 -0.851454
    CHANNELS 3 Zrotation Xrotation Yrotation
    JOINT LeftUpLegRoll
    {
      OFFSET 0 16.4076 0
      CHANNELS 3 Zrotation Xrotation Yrotation
      JOINT LeftLeg
      {
        OFFSET 0 20.3181 0
        CHANNELS 3 Zrotation Xrotation Yrotation
        JOINT LeftLegRoll
        {
          OFFSET 0 20.5731 0
          CHANNELS 3 Zrotation Xrotation Yrotation
          JOINT LeftFoot
          {
            OFFSET 0 16.7783 0
            CHANNELS 3 Zrotation Xrotation Yrotation
            JOINT LeftToeBase
            {
              OFFSET 0 14.1834 0
              CHANNELS 3 Zrotation Xrotation Yrotation
              End Site
              {
                OFFSET -0.0269423 6.8689 -0.791746
              }
            }
          }
        }
      }
    }
  }
}
MOTION
Frames: 4
Frame Time: 0.00208333
47.3374 80.3245 28.5611 -3.02901 9.92596 -0.69434 -0.0532262 -0.864431 -0.0369174 -0.109091 2.27398 -0.0676055 -0.112792 3.91905 -0.0655229 -0.558834 -10.4017 0.382942 -2.48912 9.6822 0.2989 62.8645 -4.03996 -2.75974 117.986 28.1698 -7.61715 -4.5522e-006 1.8804e-006 -7.80956e-006 15.6727 6.64409 -1.00442 1.198e-005 -1.31451e-005 -3 8.02892 -4.95091 0.697384 -67.7457 -8.41502 5.40876 -110.913 26.0833 -3.61167 1.20944e-006 4.3584e-007 -2.6703e-006 -7.0162 16.3292 1.50547 5.79461e-006 1.63685e-005 2.99999 -8.02884 -4.95102 -0.69751 -174.011 32.2914 -6.36658 180 1.52574e-005 179.224 179.113 36.0041 179.123 1.83986e-006 -6.62697e-007 0.682954 -28.1627 75.3816 29.0027 8.19627 26.1535 -3.51371 -173.32 33.1717 -1.49611 4.57705e-006 1.05463e-005 -1.0057 4.65588 -47.2065 3.74698 -8.75397e-006 -6.43419e-007 -1.84502 36.0251 79.2289 -38.6712 -8.13427 27.9542 -0.103286 
47.3202 80.3723 28.6021 -3.01662 9.85447 -0.680233 -0.0537081 -0.868657 -0.0351122 -0.1099 2.26552 -0.0639504 -0.113238 3.91059 -0.0618795 -0.581386 -10.3268 0.369968 -2.47632 9.66125 0.282178 62.859 -4.07218 -2.77793 117.935 28.0441 -7.4933 -4.5522e-006 1.8804e-006 -7.80956e-006 15.6228 6.69309 -1.01367 1.198e-005 -1.31451e-005 -3 8.02892 -4.95091 0.697384 -67.7469 -8.40856 5.4053 -110.824 25.9911 -3.77124 1.20944e-006 4.3584e-007 -2.6703e-006 -6.95016 16.3098 1.49483 5.79461e-006 1.63685e-005 2.99999 -8.02884 -4.95102 -0.69751 -174.044 32.0955 -6.32012 180 1.52574e-005 179.223 179.093 35.8137 179.13 1.83986e-006 -6.62697e-007 0.679303 -28.121 75.3377 28.9262 8.19511 26.1372 -3.51352 -173.33 32.9847 -1.48938 4.57705e-006 1.05463e-005 -1.00627 4.63899 -47.0296 3.73149 -8.75397e-006 -6.43419e-007 -1.83886 35.9364 79.2024 -38.5753 -8.13608 27.9432 -0.0878709 
47.2958 80.4095 28.649 -3.00438 9.7841 -0.665887 -0.0541261 -0.873008 -0.0332193 -0.110559 2.25682 -0.0601283 -0.113502 3.90189 -0.0580739 -0.604239 -10.2522 0.356677 -2.46352 9.64087 0.265087 62.8528 -4.10579 -2.79688 117.885 27.9188 -7.37137 -4.5522e-006 1.8804e-006 -7.80956e-006 15.5737 6.74204 -1.02286 1.198e-005 -1.31451e-005 -3 8.02892 -4.95091 0.697384 -67.7473 -8.40109 5.40129 -110.736 25.8994 -3.92997 1.20944e-006 4.3584e-007 -2.6703e-006 -6.88414 16.2895 1.48413 5.79461e-006 1.63685e-005 2.99999 -8.02884 -4.95102 -0.69751 -174.077 31.901 -6.27492 180 1.52574e-005 179.221 179.073 35.6236 179.137 1.83986e-006 -6.62697e-007 0.675668 -28.0794 75.2937 28.85 8.19397 26.1208 -3.51335 -173.341 32.7998 -1.48264 4.57705e-006 1.05463e-005 -1.00684 4.62244 -46.8535 3.71624 -8.75397e-006 -6.43419e-007 -1.83272 35.8478 79.1758 -38.4796 -8.13791 27.9323 -0.0724692 
47.2766 80.4559 28.6849 -2.99225 9.7146 -0.651407 -0.0545215 -0.877436 -0.0313136 -0.111155 2.24796 -0.0562842 -0.11368 3.89303 -0.054249 -0.627268 -10.1779 0.343305 -2.45054 9.62098 0.247881 62.8462 -4.14014 -2.81622 117.836 27.794 -7.2513 -4.5522e-006 1.8804e-006 -7.80956e-006 15.5255 6.79082 -1.03194 1.198e-005 -1.31451e-005 -3 8.02892 -4.95091 0.697384 -67.7466 -8.39325 5.39706 -110.649 25.8081 -4.08755 1.20944e-006 4.3584e-007 -2.6703e-006 -6.81837 16.2683 1.47341 5.79461e-006 1.63685e-005 2.99999 -8.02884 -4.95102 -0.69751 -174.108 31.7078 -6.23103 180 1.52574e-005 179.219 179.053 35.4339 179.143 1.83986e-006 -6.62697e-007 0.672041 -28.0378 75.2497 28.774 8.19282 26.1044 -3.51319 -173.351 32.6163 -1.47592 4.57705e-006 1.05463e-005 -1.0074 4.60625 -46.678 3.70122 -8.75397e-006 -6.43419e-007 -1.82661 35.7595 79.1491 -38.3841 -8.13974 27.9214 -0.0570887 
